<?xml version="1.0" standalone="no"?>
<!DOCTYPE svg PUBLIC "-//W3C//DTD SVG 20010904//EN"
 "http://www.w3.org/TR/2001/REC-SVG-20010904/DTD/svg10.dtd">
<svg version="1.0" xmlns="http://www.w3.org/2000/svg"
 width="714.000000pt" height="260.000000pt" viewBox="0 0 714.000000 260.000000"
 preserveAspectRatio="xMidYMid meet">

<g transform="translate(0.000000,260.000000) scale(0.100000,-0.100000)"
fill="#000000" stroke="none">
<path d="M5324 2355 c-16 -12 -17 -14 -2 -15 9 0 19 6 21 13 4 9 6 9 6 -1 1
-7 6 -10 11 -7 11 7 4 25 -9 25 -4 0 -16 -7 -27 -15z"/>
<path d="M5480 2361 c0 -5 -8 -12 -17 -14 -17 -4 -17 -5 0 -6 11 -1 17 -9 17
-26 0 -30 -27 -34 -33 -5 -4 18 -5 18 -5 -2 0 -42 -2 -49 -12 -43 -6 4 -10 -5
-10 -20 0 -21 4 -26 16 -21 12 5 15 2 12 -12 -3 -11 0 -19 7 -19 7 0 10 8 7
19 -3 11 1 18 10 18 10 0 15 9 14 23 -1 12 2 27 6 33 5 7 7 18 6 25 -2 7 6 14
17 16 16 3 17 2 5 -6 -19 -13 0 -14 20 -1 13 9 13 10 0 10 -11 1 -10 4 4 15
11 8 15 15 10 15 -6 0 -15 -5 -21 -11 -7 -7 -15 -6 -26 5 -18 18 -27 20 -27 7z
m-10 -96 c0 -8 -4 -15 -10 -15 -5 0 -10 7 -10 15 0 8 5 15 10 15 6 0 10 -7 10
-15z"/>
<path d="M5405 2353 c-34 -8 -42 -23 -20 -39 17 -13 18 -16 5 -24 -8 -5 -11
-12 -8 -16 4 -3 14 0 22 9 8 8 12 18 8 21 -3 4 0 11 8 16 13 8 13 10 1 10 -11
0 -9 4 5 15 19 15 15 16 -21 8z"/>
<path d="M5596 2338 c3 -5 10 -6 15 -3 13 9 11 12 -6 12 -8 0 -12 -4 -9 -9z"/>
<path d="M5350 2325 c0 -5 5 -17 10 -25 5 -8 10 -10 10 -5 0 6 -5 17 -10 25
-5 8 -10 11 -10 5z"/>
<path d="M5555 2310 c-3 -5 -2 -10 4 -10 5 0 13 5 16 10 3 6 2 10 -4 10 -5 0
-13 -4 -16 -10z"/>
<path d="M5497 2284 c-8 -8 1 -24 12 -24 4 0 8 7 8 15 0 16 -9 20 -20 9z"/>
<path d="M5455 2170 c-3 -5 -2 -10 4 -10 5 0 13 5 16 10 3 6 2 10 -4 10 -5 0
-13 -4 -16 -10z"/>
<path d="M4895 2151 c-3 -5 -1 -12 5 -16 5 -3 10 1 10 9 0 18 -6 21 -15 7z"/>
<path d="M5413 2149 c-6 -8 -14 -30 -17 -49 -5 -26 -4 -31 3 -20 6 8 11 23 11
32 0 9 5 18 12 20 6 2 9 10 7 17 -4 11 -7 11 -16 0z"/>
<path d="M4765 2120 c-3 -5 -1 -10 4 -10 6 0 11 5 11 10 0 6 -2 10 -4 10 -3 0
-8 -4 -11 -10z"/>
<path d="M4694 2104 c1 -7 5 -16 8 -20 4 -3 -7 -18 -23 -32 -22 -18 -33 -22
-41 -14 -8 8 -15 9 -25 1 -9 -9 -13 -8 -13 0 0 8 -12 4 -30 -9 -17 -12 -27
-26 -24 -31 8 -14 -16 -69 -30 -69 -7 0 -6 -3 2 -8 9 -6 5 -12 -14 -21 -28
-12 -43 -3 -44 26 0 6 -5 15 -12 19 -6 4 -8 3 -4 -4 3 -6 1 -14 -5 -18 -8 -4
-7 -9 2 -16 10 -7 9 -8 -5 -4 -11 4 -23 1 -28 -6 -6 -8 -8 2 -4 27 2 22 2 32
-1 22 -3 -13 -11 -17 -24 -14 -14 4 -19 0 -19 -16 -1 -20 -2 -20 -11 -4 -5 9
-8 21 -4 26 3 5 1 13 -5 16 -6 4 -10 14 -9 23 3 36 -1 53 -13 46 -7 -4 -8 -3
-4 5 4 6 12 9 17 6 5 -4 14 -3 21 1 8 5 2 11 -17 16 -33 8 -48 -5 -42 -39 3
-14 0 -20 -10 -16 -7 3 -13 -2 -13 -11 0 -9 -7 -16 -15 -16 -12 0 -13 -4 -3
-25 13 -30 33 -28 33 3 0 12 5 23 9 24 12 4 17 -30 6 -37 -5 -3 -7 -12 -4 -20
3 -8 3 -19 -1 -24 -8 -14 -45 9 -45 28 0 22 -15 3 -17 -22 -2 -12 -4 -43 -5
-69 -2 -27 -6 -48 -9 -48 -4 0 -10 -16 -13 -35 -7 -34 -26 -49 -26 -20 0 8 -6
12 -14 9 -8 -3 -21 4 -29 16 -10 14 -17 18 -22 10 -4 -6 1 -17 11 -24 27 -20
-1 -30 -31 -10 -25 16 -26 16 -32 -4 -3 -12 -10 -22 -15 -22 -5 0 -7 -4 -4 -8
3 -5 -1 -9 -9 -9 -10 0 -12 4 -5 12 16 19 -2 27 -21 9 -19 -17 -39 -11 -39 12
0 8 5 12 10 9 20 -12 24 28 4 43 -18 14 -18 14 4 9 12 -3 20 -1 16 4 -3 5 -17
9 -31 9 -22 0 -24 2 -13 15 7 9 19 14 26 11 8 -3 11 0 7 10 -6 17 -8 17 -35 3
-19 -10 -20 -9 -14 16 6 24 5 27 -13 22 -12 -3 -21 -2 -21 3 0 13 -40 6 -50
-9 -7 -12 -11 -12 -23 -2 -10 7 -18 8 -21 2 -4 -5 -2 -12 4 -16 17 -10 11 -25
-7 -18 -17 6 -17 5 0 -12 13 -13 15 -20 7 -25 -8 -5 2 -18 26 -39 41 -33 40
-42 -1 -15 -31 20 -33 9 -2 -17 l22 -20 -22 11 c-13 6 -23 8 -23 4 0 -3 10
-15 23 -25 l22 -20 -25 7 c-24 6 -24 5 -8 -11 16 -17 15 -19 -5 -36 -15 -13
-18 -21 -11 -26 6 -5 19 -24 28 -43 9 -19 36 -47 59 -62 23 -15 49 -32 57 -37
8 -5 27 -12 42 -15 20 -5 25 -10 21 -26 -3 -11 -9 -20 -14 -20 -5 0 -9 -4 -9
-9 0 -5 -5 -22 -12 -38 -6 -15 -11 -31 -10 -34 3 -15 -37 4 -42 20 -3 12 -5
11 -4 -4 0 -11 0 -31 -1 -45 -2 -24 -2 -24 -16 -6 -14 18 -15 18 -15 2 0 -9 4
-25 9 -35 7 -13 5 -17 -7 -18 -18 -1 -52 59 -52 93 0 16 -2 17 -10 4 -8 -13
-11 -13 -19 -1 -7 11 -8 -56 -1 -154 0 -5 4 -4 8 3 5 8 8 -1 8 -22 -1 -19 -4
-32 -8 -29 -5 2 -8 -1 -8 -6 0 -6 -5 -11 -10 -11 -7 0 -7 6 0 19 14 27 13 30
-10 24 -11 -3 -20 -10 -20 -15 0 -5 3 -7 8 -5 4 3 8 -6 9 -20 l1 -26 -24 29
c-13 16 -23 25 -24 20 0 -6 12 -22 27 -38 14 -15 27 -38 29 -50 1 -13 3 -26 3
-30 1 -3 9 -8 19 -11 16 -4 15 -5 -2 -12 -18 -8 -38 8 -49 39 -2 6 -8 8 -12 4
-9 -8 52 -93 112 -158 24 -25 43 -50 43 -56 0 -6 9 -19 20 -29 23 -21 27 -40
6 -32 -10 4 -13 1 -9 -8 3 -8 9 -13 13 -10 5 3 11 1 15 -5 3 -5 2 -10 -4 -10
-6 0 -8 -7 -5 -15 5 -11 2 -13 -10 -9 -13 5 -15 2 -9 -12 6 -17 5 -17 -10 -5
-15 12 -17 12 -11 -4 4 -10 1 -21 -7 -27 -11 -8 -10 -9 4 -4 10 3 36 9 58 12
32 5 39 4 39 -9 0 -14 5 -15 26 -7 21 8 25 7 21 -3 -3 -8 3 -13 14 -14 10 -1
19 2 19 7 0 5 7 7 15 4 9 -4 15 0 15 10 0 22 20 20 21 -1 1 -12 4 -10 9 7 4
14 8 19 9 11 1 -9 9 -11 25 -7 18 4 28 1 36 -11 10 -16 11 -16 6 -1 -2 9 1 22
9 28 10 8 18 5 34 -16 12 -15 21 -21 21 -15 0 8 10 4 26 -8 15 -11 30 -19 33
-16 4 2 19 6 33 9 21 3 25 1 21 -15 -3 -10 0 -19 6 -19 6 0 11 -4 11 -10 0 -5
-7 -10 -15 -10 -12 0 -13 -4 -6 -19 14 -26 7 -29 -47 -23 l-47 5 20 -20 c11
-11 25 -18 30 -14 24 14 150 7 183 -11 18 -10 37 -16 41 -13 8 4 49 -33 76
-70 13 -18 14 -18 15 -2 0 17 11 22 24 10 10 -10 36 -13 36 -3 0 4 -6 13 -14
19 -8 7 -14 27 -14 46 0 29 4 36 25 41 14 4 21 9 15 13 -12 8 -23 91 -12 91 5
0 11 -6 13 -12 3 -7 6 -3 6 10 1 19 6 22 39 21 20 -1 29 -3 20 -6 -9 -2 -16
-13 -15 -23 1 -13 5 -16 13 -10 6 6 14 7 17 4 3 -4 14 2 24 12 13 12 14 19 5
22 -6 2 -12 11 -11 20 0 11 2 12 6 4 2 -6 9 -9 14 -6 6 3 5 12 -3 22 -10 14
-10 15 2 5 19 -18 31 -16 23 3 -4 11 -14 14 -33 10 -25 -5 -28 -2 -33 27 -6
44 16 57 24 14 l6 -32 3 30 c1 17 2 37 1 45 0 10 1 11 5 3 3 -7 14 -13 25 -13
11 0 19 -7 19 -17 0 -9 3 -13 7 -10 3 4 12 2 19 -4 9 -8 15 -5 23 9 6 11 7 23
3 27 -4 5 -1 5 6 1 16 -10 16 15 -2 39 -12 17 -11 20 11 32 14 7 26 13 28 13
7 0 1 -57 -7 -67 -7 -8 -1 -23 18 -48 22 -29 25 -38 14 -48 -10 -10 -12 -9 -7
5 8 22 -11 34 -26 18 -9 -10 -9 -11 1 -6 6 4 12 3 12 -2 0 -24 -55 -22 -73 2
-5 7 -7 5 -5 -4 2 -8 0 -15 -4 -15 -8 0 -37 -37 -38 -47 0 -5 7 -8 16 -8 10 0
14 6 10 15 -4 12 3 15 36 15 37 0 40 -1 24 -13 -17 -13 -18 -14 -2 -20 10 -4
15 -11 12 -15 -3 -5 -1 -22 4 -38 l8 -29 1 26 c1 22 5 25 24 22 12 -3 31 -16
41 -31 16 -21 17 -24 4 -19 -22 8 -31 -19 -12 -38 14 -13 14 -15 0 -15 -9 0
-16 -4 -16 -9 0 -5 -16 -15 -34 -22 -34 -12 -41 -35 -8 -25 10 3 24 1 32 -4
13 -9 13 -11 0 -20 -20 -13 -40 -13 -40 1 0 8 -5 8 -15 -1 -13 -11 -16 -8 -21
18 -5 27 -9 29 -24 20 -10 -7 -16 -18 -13 -25 3 -7 -2 -13 -10 -13 -8 0 -18
-6 -21 -12 -3 -7 -4 -1 -2 14 1 15 -1 25 -5 22 -5 -3 -9 -13 -10 -22 0 -11 -2
-12 -6 -4 -2 6 -9 10 -13 7 -5 -3 -7 -12 -3 -21 4 -12 1 -13 -22 -4 -24 9 -26
8 -16 -4 18 -22 -6 -71 -61 -123 -16 -15 -28 -31 -28 -37 0 -6 -9 -17 -20 -24
-12 -7 -18 -16 -15 -21 2 -5 -2 -14 -10 -21 -7 -6 -12 -17 -9 -24 3 -8 -2 -16
-11 -20 -26 -10 -5 -29 25 -23 20 5 27 2 27 -11 0 -9 -4 -22 -9 -29 -7 -8 -3
-10 11 -6 23 6 27 18 11 28 -6 4 -8 11 -4 16 3 5 0 18 -7 27 -10 13 -8 12 9
-2 12 -11 25 -16 30 -12 4 4 -1 13 -11 21 -16 11 -16 13 -1 19 22 9 24 8 24
-9 0 -8 5 -15 11 -15 6 0 9 7 6 15 -7 18 25 12 122 -20 72 -25 92 -18 95 30 1
25 16 36 16 13 0 -9 3 -9 12 0 26 26 77 2 59 -27 -6 -9 -11 -10 -15 -2 -4 6
-19 10 -34 10 -20 -1 -22 -3 -8 -6 11 -3 27 -12 35 -21 15 -14 15 -15 0 -10
-11 4 -20 -1 -27 -17 -9 -20 -8 -22 8 -18 34 9 75 65 76 103 0 19 -4 38 -9 41
-15 11 92 41 128 37 19 -2 36 1 38 7 2 6 10 5 21 -4 15 -12 19 -13 26 -1 7 11
11 11 24 1 12 -10 16 -10 16 -2 0 8 8 10 19 6 14 -4 24 2 37 25 10 16 24 30
30 30 6 0 16 6 22 13 8 9 4 19 -14 36 -15 15 -22 30 -19 41 8 24 -20 50 -45
43 -17 -5 -20 0 -20 26 0 24 -4 31 -20 31 -22 0 -70 20 -70 30 0 3 4 10 9 15
11 11 -6 39 -28 47 -12 3 -11 8 6 25 14 14 18 25 12 34 -13 21 -11 28 9 24 9
-2 22 -4 28 -4 7 -1 14 -17 16 -36 3 -29 1 -35 -14 -35 -10 0 -18 -6 -18 -13
0 -16 43 -34 96 -40 47 -5 74 15 74 58 0 41 42 70 100 69 50 -1 50 -1 49 30 0
17 -3 25 -6 19 -2 -7 -9 -13 -14 -13 -6 0 -7 5 -3 12 5 8 0 9 -15 5 -17 -4
-20 -3 -11 8 13 16 -12 24 -63 20 -25 -2 -34 0 -31 9 6 15 -40 38 -60 30 -8
-3 -23 -1 -33 6 -16 9 -15 10 6 4 16 -4 21 -3 17 5 -4 6 -18 11 -31 11 -12 0
-25 7 -29 15 -3 8 -15 15 -26 15 -12 0 -18 -4 -15 -10 3 -5 -1 -10 -9 -10 -8
0 -18 5 -22 11 -5 8 -10 6 -16 -5 -5 -9 -14 -16 -21 -16 -20 0 -41 -41 -27
-50 7 -4 9 -13 5 -20 -5 -8 -4 -11 3 -7 13 9 42 -2 42 -15 0 -5 -8 -7 -19 -3
-13 4 -20 0 -24 -15 -4 -17 -3 -19 9 -9 11 9 14 8 14 -7 -1 -23 -52 -64 -58
-46 -2 7 -11 12 -20 13 -11 0 -12 2 -4 6 6 2 10 9 6 14 -3 5 0 9 7 9 7 0 9 3
6 6 -3 4 -2 16 4 28 8 17 6 16 -10 -4 -12 -14 -26 -31 -32 -38 -15 -18 -30 -5
-27 26 1 15 -2 33 -6 40 -5 8 0 20 14 32 11 10 17 21 12 24 -5 3 -7 18 -4 34
2 19 -1 31 -10 35 -11 4 -14 -4 -11 -34 3 -35 0 -39 -20 -39 -12 0 -28 4 -36
9 -17 11 -6 32 13 25 18 -7 32 16 17 26 -10 5 -9 11 2 22 16 16 5 48 -16 48
-19 0 -41 41 -27 50 6 4 11 13 10 21 -4 29 1 39 18 36 27 -4 65 -34 57 -46 -3
-6 -2 -11 3 -11 16 0 22 13 11 26 -7 9 -7 19 0 33 8 14 8 22 0 27 -8 4 -8 8 0
13 5 4 8 17 4 30 -4 17 -8 19 -14 9 -6 -9 -10 -3 -15 20 -8 38 -24 43 -24 8 0
-31 -20 -44 -32 -22 -13 23 -27 20 -21 -4 4 -16 2 -19 -11 -14 -19 7 -20 0 -6
-27 7 -13 7 -19 0 -19 -5 0 -10 7 -10 16 0 8 -4 13 -9 10 -5 -3 -12 1 -15 9
-3 8 -11 14 -18 13 -6 -2 -14 5 -16 14 -2 13 1 16 12 12 9 -3 16 -10 16 -15 0
-5 7 -9 15 -9 21 0 19 8 -11 47 -14 19 -23 40 -20 48 3 8 1 17 -5 21 -19 11
-21 -5 -5 -37 9 -18 16 -33 16 -34 0 -1 -13 -2 -30 -1 -16 1 -30 5 -30 10 0 4
-9 6 -20 3 -10 -3 -19 -2 -18 2 2 18 -4 21 -23 10 -18 -9 -23 -7 -36 11 l-16
23 -13 -29 c-8 -19 -13 -23 -13 -11 -1 9 -6 17 -12 17 -7 0 -10 12 -7 29 3 22
1 28 -11 23 -10 -4 -13 -1 -8 11 3 8 1 18 -6 20 -7 2 -8 8 -4 13 4 4 17 3 27
-4 15 -9 19 -9 18 0 -4 18 51 36 61 19 6 -10 10 -9 14 3 4 9 1 16 -6 16 -16 0
-16 48 0 75 l12 20 15 -20 c12 -16 17 -18 27 -7 10 9 10 12 1 12 -7 0 -12 8
-12 18 0 15 2 15 11 2 8 -11 9 -3 4 30 -4 25 -7 56 -7 70 0 14 -5 31 -11 39
-16 20 -16 72 1 99 12 18 17 20 24 10 6 -9 8 -5 6 12 -3 21 1 24 20 22 12 -2
22 2 22 7 0 6 -7 11 -15 11 -8 0 -15 7 -15 15 0 9 -6 12 -17 8 -13 -5 -15 -3
-8 13 4 10 10 42 12 69 3 28 10 53 16 57 6 4 4 12 -6 23 -10 9 -17 25 -17 35
0 13 -5 17 -14 14 -9 -3 -17 3 -21 15 -3 12 -11 18 -17 15 -7 -5 -8 -2 -3 5 4
8 -1 21 -14 32 -12 11 -21 23 -21 27 0 7 -73 43 -96 48 -7 1 -11 -4 -10 -12z
m119 -94 c3 -11 1 -18 -4 -14 -5 3 -9 12 -9 20 0 20 7 17 13 -6z m-167 -18
c-4 -3 -14 2 -24 12 -16 18 -16 18 6 6 13 -6 21 -14 18 -18z m-371 -42 c3 -5
1 -10 -4 -10 -6 0 -11 5 -11 10 0 6 2 10 4 10 3 0 8 -4 11 -10z m67 -54 c1
-10 -3 -21 -10 -23 -7 -3 -10 1 -6 11 3 9 1 16 -5 16 -6 0 -8 7 -4 16 7 18 20
7 25 -20z m185 -12 c-3 -3 -12 -4 -19 -1 -8 3 -5 6 6 6 11 1 17 -2 13 -5z
m-240 -54 c4 -13 3 -13 -6 0 -15 22 -26 3 -13 -24 9 -20 9 -24 -2 -20 -15 6
-27 49 -18 59 10 10 35 0 39 -15z m21 -45 c-3 -3 -9 2 -12 12 -6 14 -5 15 5 6
7 -7 10 -15 7 -18z m212 -30 c0 -8 -4 -15 -10 -15 -5 0 -7 7 -4 15 4 8 8 15
10 15 2 0 4 -7 4 -15z m-420 -39 c0 -11 -19 -15 -25 -6 -3 5 1 10 9 10 9 0 16
-2 16 -4z m-236 -490 c15 -44 24 -81 22 -83 -5 -6 -46 102 -53 142 -10 50 4
24 31 -59z m818 29 c3 -13 1 -22 -3 -19 -9 5 -13 44 -5 44 2 0 6 -11 8 -25z
m-837 -184 c-3 -2 -11 1 -18 7 -8 7 -18 8 -22 4 -5 -4 -5 -1 -1 5 5 10 11 10
26 1 11 -7 17 -14 15 -17z m1108 -74 c4 3 7 -4 7 -17 0 -13 -1 -21 -3 -19 -1
2 -11 15 -22 29 -12 15 -14 20 -4 12 9 -6 19 -9 22 -5z m-3 -69 c0 -6 -7 -5
-15 2 -8 7 -15 17 -15 22 0 6 7 5 15 -2 8 -7 15 -17 15 -22z m85 -19 c9 -42
-8 -59 -35 -34 -20 18 -17 40 5 31 8 -3 11 2 8 15 -3 10 -1 19 5 19 6 0 13
-14 17 -31z m-65 -35 c0 -8 -4 -12 -10 -9 -5 3 -10 10 -10 16 0 5 5 9 10 9 6
0 10 -7 10 -16z m-40 -14 c0 -5 -2 -10 -4 -10 -3 0 -8 5 -11 10 -3 6 -1 10 4
10 6 0 11 -4 11 -10z m-30 -50 c0 -5 -7 -7 -15 -4 -8 4 -12 10 -9 15 6 11 24
2 24 -11z m405 10 c3 -5 1 -10 -4 -10 -6 0 -11 5 -11 10 0 6 2 10 4 10 3 0 8
-4 11 -10z m-367 -45 c-3 -3 -9 2 -12 12 -6 14 -5 15 5 6 7 -7 10 -15 7 -18z
m352 10 c0 -1 -9 -5 -19 -8 -13 -3 -18 -1 -14 9 4 10 33 10 33 -1z m-219 -18
c-10 -9 -11 -8 -5 6 3 10 9 15 12 12 3 -3 0 -11 -7 -18z m-1 -42 c0 14 20 -17
20 -32 0 -20 -20 -15 -21 5 -1 16 -2 16 -6 0 -2 -10 -8 -18 -12 -18 -14 0 -21
13 -13 24 4 6 7 14 8 19 1 4 2 10 3 15 1 4 6 0 11 -8 5 -8 10 -10 10 -5z
m-266 -36 c-3 -5 -13 -9 -22 -8 -11 0 -12 2 -4 6 6 2 10 9 7 14 -4 5 1 6 9 3
9 -3 13 -10 10 -15z m-430 -25 c3 -8 2 -13 -3 -10 -5 3 -12 -1 -15 -10 -3 -8
-10 -12 -16 -9 -7 4 -7 13 0 26 13 23 26 24 34 3z m980 1 c-4 -8 -10 -15 -15
-15 -4 0 -6 7 -3 15 4 8 10 15 15 15 4 0 6 -7 3 -15z m-314 -15 c0 -5 -5 -10
-11 -10 -5 0 -7 5 -4 10 3 6 8 10 11 10 2 0 4 -4 4 -10z m-580 -120 c0 -5 -4
-10 -10 -10 -5 0 -10 5 -10 10 0 6 5 10 10 10 6 0 10 -4 10 -10z m639 -56 c2
-1 -9 -15 -23 -29 l-26 -26 -10 26 c-15 40 -13 45 23 38 17 -3 34 -7 36 -9z
m26 -45 c1 -19 -4 -25 -21 -27 -13 -1 -26 3 -30 9 -4 7 1 9 15 4 21 -6 30 8
11 20 -13 8 -2 27 13 22 6 -2 12 -15 12 -28z m210 -9 c-3 -5 -14 -10 -23 -10
-15 0 -15 2 -2 10 20 13 33 13 25 0z m-151 -15 c10 -7 15 -19 11 -25 -6 -9
-10 -9 -16 1 -8 12 -11 11 -19 -1 -13 -20 -12 -30 3 -30 8 0 7 -4 -3 -10 -13
-8 -12 -10 3 -10 9 0 17 -4 17 -10 0 -15 -44 8 -58 31 -7 10 -9 19 -5 18 5 -1
15 -1 23 0 13 1 13 2 0 11 -12 8 -12 10 4 16 14 5 15 9 4 15 -10 7 -10 9 2 9
8 -1 23 -7 34 -15z m-110 -50 c-10 -8 -23 -14 -29 -14 -5 0 -1 6 9 14 11 8 24
15 30 15 5 0 1 -7 -10 -15z m297 -32 c-12 -20 -14 -14 -5 12 4 9 9 14 11 11 3
-2 0 -13 -6 -23z m-276 -63 c-3 -5 -12 -7 -20 -3 -21 7 -19 13 6 13 11 0 18
-4 14 -10z"/>
<path d="M5434 2096 c-10 -8 -16 -17 -13 -20 3 -3 14 3 24 14 21 23 17 26 -11
6z"/>
<path d="M4190 2028 c0 -5 -4 -6 -10 -3 -5 3 -10 2 -10 -3 0 -11 48 -13 55 -2
3 4 -4 10 -15 13 -11 3 -20 1 -20 -5z"/>
<path d="M4140 1989 c-11 -20 -12 -20 -33 -2 l-22 18 18 -22 c11 -12 25 -19
32 -17 7 3 16 0 21 -7 5 -8 3 -10 -7 -4 -12 7 -12 5 -1 -6 11 -12 14 -12 21 0
5 8 15 10 22 6 8 -4 3 3 -11 14 -23 19 -23 21 -5 21 17 0 17 2 5 10 -22 14
-28 12 -40 -11z"/>
<path d="M4365 2000 c3 -5 10 -10 16 -10 5 0 9 5 9 10 0 6 -7 10 -16 10 -8 0
-12 -4 -9 -10z"/>
<path d="M4910 1945 c0 -8 4 -15 10 -15 5 0 7 7 4 15 -4 8 -8 15 -10 15 -2 0
-4 -7 -4 -15z"/>
<path d="M4181 1908 c2 -13 0 -28 -4 -35 -4 -6 -2 -15 4 -18 13 -8 15 -7 24
24 5 16 4 21 -4 17 -6 -4 -11 -2 -11 3 0 6 5 11 10 11 6 0 10 5 10 10 0 6 -7
10 -16 10 -10 0 -14 -7 -13 -22z"/>
<path d="M5565 1920 c3 -5 8 -10 11 -10 2 0 4 5 4 10 0 6 -5 10 -11 10 -5 0
-7 -4 -4 -10z"/>
<path d="M5485 1884 c-12 -13 -19 -14 -30 -4 -9 8 -15 8 -15 2 0 -6 6 -12 13
-15 6 -2 9 -7 5 -11 -3 -4 -16 -3 -27 4 -18 9 -21 8 -22 -10 -3 -39 -4 -43
-24 -54 -30 -17 -45 -39 -41 -58 2 -10 0 -18 -6 -18 -6 0 -8 -9 -5 -21 4 -14
2 -19 -7 -16 -9 4 -13 -3 -13 -21 0 -15 2 -21 4 -14 3 6 11 12 19 12 8 0 14 6
14 13 0 8 4 7 10 -3 9 -14 11 -13 14 9 2 20 16 23 16 4 0 -11 -12 -32 -26 -47
-21 -20 -23 -26 -10 -26 9 0 19 7 22 15 4 8 10 15 15 15 10 0 -1 -33 -15 -42
-6 -4 -6 -11 2 -21 7 -7 9 -17 5 -20 -3 -4 -1 -7 6 -7 9 0 11 8 7 25 -5 18 -2
25 8 25 7 0 19 6 26 14 14 18 40 10 40 -13 1 -12 5 -11 21 8 17 21 18 26 6 40
-8 9 -12 22 -10 29 3 6 0 12 -6 12 -13 0 -15 37 -2 45 5 3 11 -1 13 -10 2 -10
8 -12 17 -6 8 5 11 16 8 25 -4 9 -7 20 -8 24 0 4 -6 13 -12 21 -9 10 -6 18 13
34 l25 20 -27 -7 c-34 -8 -38 11 -5 23 14 5 25 4 29 -3 5 -7 8 -7 8 -1 0 6 -9
18 -20 27 -17 16 -21 16 -35 2z m-80 -154 c3 -5 1 -10 -4 -10 -6 0 -11 5 -11
10 0 6 2 10 4 10 3 0 8 -4 11 -10z m60 -90 c3 -6 -1 -7 -9 -4 -18 7 -21 14 -7
14 6 0 13 -4 16 -10z"/>
<path d="M5550 1896 c0 -2 7 -7 16 -10 8 -3 12 -2 9 4 -6 10 -25 14 -25 6z"/>
<path d="M5640 1859 c0 -5 5 -7 10 -4 6 3 10 8 10 11 0 2 -4 4 -10 4 -5 0 -10
-5 -10 -11z"/>
<path d="M5382 1830 c0 -14 2 -19 5 -12 2 6 2 18 0 25 -3 6 -5 1 -5 -13z"/>
<path d="M3765 1829 c-4 -6 -5 -12 -2 -15 2 -3 7 2 10 11 7 17 1 20 -8 4z"/>
<path d="M4080 1827 c0 -7 9 -18 20 -25 11 -7 20 -9 20 -4 0 4 -9 15 -20 25
-14 11 -20 13 -20 4z"/>
<path d="M5676 1817 c3 -10 9 -15 12 -12 3 3 0 11 -7 18 -10 9 -11 8 -5 -6z"/>
<path d="M5000 1804 c0 -8 5 -12 10 -9 6 4 8 11 5 16 -9 14 -15 11 -15 -7z"/>
<path d="M3715 1801 c-3 -6 3 -9 14 -8 11 0 17 5 15 9 -7 11 -22 10 -29 -1z"/>
<path d="M5715 1790 c-3 -5 -1 -10 4 -10 6 0 11 5 11 10 0 6 -2 10 -4 10 -3 0
-8 -4 -11 -10z"/>
<path d="M5527 1769 c4 -13 8 -18 11 -10 2 7 -1 18 -6 23 -8 8 -9 4 -5 -13z"/>
<path d="M3680 1770 c0 -5 5 -10 11 -10 5 0 7 5 4 10 -3 6 -8 10 -11 10 -2 0
-4 -4 -4 -10z"/>
<path d="M5533 1720 c2 -8 0 -23 -4 -32 -7 -12 -4 -18 12 -23 11 -4 23 -4 26
-1 4 3 -1 6 -11 6 -12 0 -16 5 -12 18 3 9 1 24 -5 32 -9 13 -10 13 -6 0z"/>
<path d="M5653 1723 c-17 -6 -16 -21 2 -39 8 -9 15 -14 16 -12 13 50 8 62 -18
51z"/>
<path d="M5685 1690 c3 -5 8 -10 11 -10 2 0 4 5 4 10 0 6 -5 10 -11 10 -5 0
-7 -4 -4 -10z"/>
<path d="M5514 1634 c-1 -13 2 -24 7 -24 4 0 5 -7 2 -17 -4 -11 -3 -14 5 -9 8
5 12 -2 12 -19 0 -14 4 -24 9 -20 5 3 8 17 5 30 -2 14 0 25 6 25 5 0 10 11 10
25 0 14 -5 25 -11 25 -6 0 -8 -8 -4 -19 5 -16 2 -18 -15 -14 -15 4 -18 9 -10
18 7 9 7 14 -2 18 -8 3 -14 -5 -14 -19z"/>
<path d="M4884 1625 c-6 -13 -8 -29 -4 -35 5 -8 10 -1 15 19 9 40 3 47 -11 16z"/>
<path d="M5300 1610 c0 -5 5 -10 11 -10 5 0 7 5 4 10 -3 6 -8 10 -11 10 -2 0
-4 -4 -4 -10z"/>
<path d="M5438 1603 c7 -3 16 -2 19 1 4 3 -2 6 -13 5 -11 0 -14 -3 -6 -6z"/>
<path d="M5491 1575 c0 -5 3 -16 8 -23 6 -10 11 -9 22 4 12 16 12 17 -3 11 -9
-3 -19 -1 -22 6 -2 7 -5 8 -5 2z"/>
<path d="M4895 1562 c-3 -3 -5 -19 -5 -36 l0 -31 20 33 c11 18 20 34 20 36 0
5 -30 3 -35 -2z"/>
<path d="M5081 1524 c0 -11 3 -14 6 -6 3 7 2 16 -1 19 -3 4 -6 -2 -5 -13z"/>
<path d="M5082 1480 c0 -14 2 -19 5 -12 2 6 2 18 0 25 -3 6 -5 1 -5 -13z"/>
<path d="M4914 1474 c3 -8 6 -25 6 -36 0 -26 5 -21 14 13 4 20 1 29 -10 33
-12 5 -15 2 -10 -10z"/>
<path d="M4960 1480 c0 -5 5 -10 11 -10 5 0 7 5 4 10 -3 6 -8 10 -11 10 -2 0
-4 -4 -4 -10z"/>
<path d="M5939 1453 c-13 -16 -12 -17 4 -4 16 13 21 21 13 21 -2 0 -10 -8 -17
-17z"/>
<path d="M5572 1428 c-24 -6 -32 -13 -28 -24 3 -7 3 -21 0 -29 -7 -17 -34 -21
-34 -4 0 5 -4 8 -9 5 -5 -3 -11 8 -15 24 -7 40 -23 38 -43 -5 -17 -35 -10 -62
8 -35 9 12 10 12 5 -3 -3 -10 -6 -21 -6 -23 0 -3 -4 -2 -10 1 -5 3 -10 -1 -10
-10 0 -9 -6 -26 -14 -38 -8 -12 -17 -41 -21 -64 -6 -41 -6 -43 19 -43 17 0 26
5 26 16 0 8 -4 12 -10 9 -5 -3 -10 -2 -10 3 0 6 7 12 15 16 8 3 15 16 15 30 0
13 7 27 15 30 12 4 13 10 6 23 -6 13 -5 22 5 31 12 11 14 8 14 -18 0 -32 8
-38 28 -18 9 9 12 9 12 -2 0 -10 4 -8 13 4 11 15 17 17 35 7 13 -7 22 -21 22
-35 0 -14 9 -27 24 -34 17 -8 23 -7 23 1 0 7 1 21 2 32 1 16 3 17 10 5 6 -8 7
-26 4 -41 -3 -18 0 -28 11 -32 9 -4 16 -10 16 -15 0 -13 -36 -52 -43 -46 -3 3
-8 -8 -12 -25 -3 -17 -11 -29 -17 -28 -6 1 -15 -9 -19 -23 -4 -14 -7 -19 -8
-12 -1 7 -5 11 -11 7 -5 -3 -7 -12 -3 -20 3 -8 0 -15 -6 -15 -14 0 -33 -45
-33 -77 0 -13 -6 -23 -13 -23 -21 0 -25 13 -8 25 9 7 13 17 9 24 -10 16 -36
-5 -36 -28 0 -10 -9 -27 -19 -38 -11 -12 -17 -24 -13 -29 4 -4 -1 -4 -11 -1
-10 4 -16 3 -12 -3 3 -5 -3 -8 -13 -7 -10 0 -19 9 -20 19 -1 10 -3 27 -4 38
-1 13 -8 19 -18 17 -8 -2 -14 -9 -12 -16 2 -8 -3 -12 -10 -9 -7 2 -23 -5 -34
-16 l-22 -21 30 -1 c20 -1 28 3 24 12 -3 8 0 11 8 8 7 -3 12 -15 12 -26 -1
-18 5 -22 29 -22 19 -1 29 -6 27 -14 -2 -10 31 -31 48 -29 3 0 15 -5 27 -11
14 -8 24 -9 28 -2 3 5 12 10 18 10 7 0 6 -4 -3 -11 -12 -8 -9 -9 10 -4 14 4
37 9 53 12 15 3 27 11 27 18 0 8 9 10 25 7 16 -3 25 0 25 8 0 7 8 10 20 7 11
-3 20 -1 20 4 0 5 9 9 21 9 14 0 19 -5 16 -14 -3 -8 2 -20 11 -28 11 -9 14
-10 8 0 -4 7 -2 12 4 12 6 0 8 4 5 10 -3 5 0 7 9 4 10 -4 14 -17 12 -45 -3
-36 -1 -39 22 -39 37 0 82 54 82 98 l0 35 -42 -7 c-28 -4 -38 -3 -29 3 18 12
23 41 8 41 -7 0 -1 10 13 21 14 11 19 17 11 13 -9 -4 -19 0 -28 11 -7 11 -13
15 -13 9 0 -5 -9 2 -20 16 -17 21 -21 23 -30 10 -5 -8 -10 -11 -10 -6 0 6 -13
-3 -29 -18 -31 -30 -69 -30 -57 0 3 9 6 19 6 24 0 4 11 11 25 14 14 4 25 11
25 16 0 6 9 10 21 10 11 0 18 4 15 9 -7 10 -31 9 -42 -2 -4 -4 -14 -7 -22 -7
-11 0 -13 8 -9 36 5 28 3 35 -8 30 -12 -4 -12 -1 -3 20 7 15 17 23 25 20 8 -3
11 -1 8 4 -3 6 -1 10 6 10 8 0 9 3 0 13 -8 11 -6 18 9 32 19 17 20 17 29 -8
13 -34 31 -44 31 -17 0 11 -12 32 -26 45 -18 16 -22 25 -12 25 7 0 19 -5 24
-10 8 -8 15 -6 24 6 12 14 12 16 -5 14 -43 -5 -55 0 -48 18 6 15 3 14 -17 -3
l-23 -20 5 23 c4 15 2 22 -8 22 -8 0 -14 7 -14 15 0 8 -7 15 -15 15 -16 0 -34
29 -28 47 2 6 -1 15 -8 19 -9 5 -10 2 -6 -9 4 -11 -1 -20 -13 -27 -11 -6 -20
-16 -20 -22 0 -6 3 -9 6 -5 4 3 13 -1 21 -9 12 -12 13 -18 3 -29 -16 -19 -22
-19 -48 4 -27 23 -27 33 -2 56 11 10 20 24 20 32 0 8 5 11 10 8 6 -3 10 -1 10
4 0 6 -6 11 -14 11 -8 0 -16 4 -18 8 -1 5 -18 5 -36 0z m-92 -38 c0 -5 -5 -10
-11 -10 -5 0 -7 5 -4 10 3 6 8 10 11 10 2 0 4 -4 4 -10z"/>
<path d="M5397 1413 c-11 -10 -8 -53 3 -53 6 0 10 14 10 30 0 31 -2 35 -13 23z"/>
<path d="M4932 1388 c2 -12 9 -23 16 -26 18 -6 15 35 -4 42 -11 4 -15 0 -12
-16z"/>
<path d="M3966 1384 c-3 -9 -2 -23 2 -31 7 -11 9 -6 10 16 1 34 -3 39 -12 15z"/>
<path d="M3810 1370 c0 -5 5 -10 11 -10 5 0 7 5 4 10 -3 6 -8 10 -11 10 -2 0
-4 -4 -4 -10z"/>
<path d="M5882 1268 c-7 -7 -12 -21 -12 -32 0 -26 16 -53 26 -43 4 3 1 14 -7
23 -11 14 -10 17 4 25 9 6 17 17 17 24 0 18 -12 19 -28 3z"/>
<path d="M3750 1261 c0 -6 4 -13 10 -16 6 -3 7 1 4 9 -7 18 -14 21 -14 7z"/>
<path d="M5182 1244 c2 -13 -6 -29 -20 -41 -18 -14 -22 -24 -17 -45 10 -40 51
-43 87 -8 30 30 36 50 16 50 -7 0 -25 15 -41 33 -24 27 -28 29 -25 11z"/>
<path d="M4890 1240 c0 -5 5 -10 10 -10 6 0 10 5 10 10 0 6 -4 10 -10 10 -5 0
-10 -4 -10 -10z"/>
<path d="M5030 1235 c-1 -5 -3 -18 -5 -27 -2 -10 1 -20 5 -23 13 -8 18 8 9 35
-4 14 -8 21 -9 15z"/>
<path d="M5907 1233 c-11 -11 -8 -23 6 -23 8 0 14 7 14 15 0 16 -9 19 -20 8z"/>
<path d="M5921 1191 c-10 -6 -9 -10 5 -15 20 -8 25 -4 16 11 -4 7 -13 9 -21 4z"/>
<path d="M5546 1168 c-9 -34 -8 -35 15 -41 12 -3 18 -10 14 -16 -3 -6 -2 -11
4 -11 5 0 13 5 16 10 3 6 1 10 -4 10 -6 0 -11 9 -11 19 0 48 -23 67 -34 29z"/>
<path d="M5390 1161 c0 -9 20 -34 43 -51 17 -12 18 -11 14 15 -3 21 -11 31
-30 36 -15 4 -27 4 -27 0z"/>
<path d="M5510 1116 c0 -19 4 -23 20 -19 11 3 20 8 20 12 0 3 -9 12 -20 19
-18 11 -20 10 -20 -12z"/>
<path d="M5730 1113 c0 -22 2 -25 10 -13 13 20 13 40 0 40 -5 0 -10 -12 -10
-27z"/>
<path d="M5870 1125 c0 -8 2 -15 4 -15 2 0 11 -3 20 -6 12 -4 16 0 16 15 0 14
-6 21 -20 21 -11 0 -20 -7 -20 -15z"/>
<path d="M5258 1109 c-10 -5 -15 -16 -12 -24 6 -13 -6 -20 -28 -16 -5 0 -8 -3
-8 -9 0 -5 8 -10 19 -10 10 0 30 -9 44 -20 33 -26 42 -25 23 2 -9 12 -16 31
-16 41 0 11 -5 15 -11 11 -8 -4 -8 0 0 15 13 24 13 24 -11 10z"/>
<path d="M3740 1103 c0 -4 5 -15 10 -23 8 -13 10 -13 10 2 0 9 -4 20 -10 23
-5 3 -10 3 -10 -2z"/>
<path d="M5943 1063 c-7 -3 -13 -10 -13 -18 0 -16 27 -39 33 -28 8 15 -8 50
-20 46z"/>
<path d="M5519 1048 c-7 -31 -6 -35 12 -31 21 6 21 24 1 31 -7 2 -12 2 -13 0z"/>
<path d="M5050 1014 c0 -8 5 -12 10 -9 6 4 8 11 5 16 -9 14 -15 11 -15 -7z"/>
<path d="M5055 980 c-3 -5 -1 -10 4 -10 6 0 11 5 11 10 0 6 -2 10 -4 10 -3 0
-8 -4 -11 -10z"/>
<path d="M5110 964 c0 -8 5 -12 10 -9 6 3 10 10 10 16 0 5 -4 9 -10 9 -5 0
-10 -7 -10 -16z"/>
<path d="M5102 928 c6 -16 45 -20 54 -6 5 8 2 9 -9 5 -9 -3 -19 -2 -22 3 -9
14 -27 12 -23 -2z"/>
<path d="M5973 895 c3 -25 37 -34 37 -10 0 11 -5 15 -14 12 -8 -3 -17 -1 -20
6 -3 7 -5 3 -3 -8z"/>
<path d="M5767 783 c4 -9 9 -10 18 -3 6 5 15 7 18 3 4 -3 7 -2 7 4 0 6 -11 11
-24 11 -17 0 -23 -5 -19 -15z"/>
<path d="M3872 781 c-11 -7 -10 -9 3 -15 12 -4 14 -12 9 -28 -3 -13 -3 -19 2
-15 10 9 15 67 6 67 -4 0 -13 -4 -20 -9z"/>
<path d="M4866 754 c-4 -9 -4 -19 -2 -21 8 -8 26 8 26 23 0 19 -16 18 -24 -2z"/>
<path d="M3861 725 c-1 -13 19 -35 31 -35 4 0 8 5 8 10 0 6 -6 10 -14 10 -8 0
-17 6 -19 13 -3 6 -6 7 -6 2z"/>
<path d="M5571 671 c-8 -5 -9 -11 -3 -15 5 -3 12 1 16 9 6 17 6 18 -13 6z"/>
<path d="M3742 641 c-11 -6 -10 -10 5 -16 31 -14 52 -13 46 1 -3 8 -9 11 -14
8 -5 -3 -9 0 -9 5 0 13 -10 14 -28 2z"/>
<path d="M3840 646 c0 -2 7 -7 16 -10 8 -3 12 -2 9 4 -6 10 -25 14 -25 6z"/>
<path d="M3633 623 c-10 -4 -10 -9 2 -26 16 -24 45 -32 45 -13 0 18 -32 44
-47 39z m32 -22 c3 -5 1 -12 -5 -16 -5 -3 -10 1 -10 9 0 18 6 21 15 7z"/>
<path d="M4120 620 c0 -5 5 -10 11 -10 5 0 7 5 4 10 -3 6 -8 10 -11 10 -2 0
-4 -4 -4 -10z"/>
<path d="M4091 598 c-1 -16 4 -28 9 -28 12 0 12 8 0 35 -8 18 -9 17 -9 -7z"/>
<path d="M4925 610 c3 -5 10 -10 16 -10 5 0 9 5 9 10 0 6 -7 10 -16 10 -8 0
-12 -4 -9 -10z"/>
<path d="M4761 594 c0 -11 3 -14 6 -6 3 7 2 16 -1 19 -3 4 -6 -2 -5 -13z"/>
<path d="M5009 595 c-1 -3 -3 -9 -4 -15 -1 -5 -3 -14 -4 -20 0 -5 -9 -10 -18
-10 -16 0 -16 -2 -3 -11 12 -8 9 -9 -12 -5 -17 4 -28 2 -28 -4 0 -6 5 -8 10
-5 6 3 10 -1 10 -10 0 -12 5 -15 16 -11 9 3 22 6 30 6 9 0 12 5 9 10 -3 6 -3
10 2 10 4 0 8 16 8 35 0 19 -3 35 -7 35 -5 0 -9 -2 -9 -5z"/>
<path d="M4128 583 c7 -3 16 -2 19 1 4 3 -2 6 -13 5 -11 0 -14 -3 -6 -6z"/>
<path d="M5413 541 l-22 -6 20 -43 c14 -30 25 -42 35 -38 16 6 19 -9 4 -19 -7
-4 -7 -13 0 -26 14 -26 32 -24 30 4 -1 12 -1 27 0 32 7 25 5 41 -6 50 -7 6
-14 19 -16 29 -4 22 -14 26 -45 17z"/>
<path d="M4290 520 c0 -5 5 -10 11 -10 5 0 7 5 4 10 -3 6 -8 10 -11 10 -2 0
-4 -4 -4 -10z"/>
<path d="M4836 493 c-6 -14 -5 -15 5 -6 7 7 10 15 7 18 -3 3 -9 -2 -12 -12z"/>
<path d="M3780 475 c0 -8 9 -19 21 -25 20 -11 20 -11 4 14 -20 30 -25 32 -25
11z"/>
<path d="M4117 469 c-17 -19 -17 -22 -2 -45 8 -13 20 -24 26 -24 7 0 9 -12 7
-30 -4 -25 -1 -31 18 -36 28 -7 38 -41 16 -54 -10 -5 -12 -10 -4 -10 6 0 12
-7 12 -15 0 -8 7 -15 16 -15 9 0 12 -5 8 -12 -5 -8 -2 -9 10 -5 22 9 61 -26
50 -44 -5 -9 -2 -10 10 -6 10 4 19 7 22 7 2 0 0 8 -3 17 -5 12 -2 15 10 10 18
-7 42 17 33 32 -4 6 -13 8 -20 5 -8 -3 -17 -1 -21 5 -5 10 14 16 38 12 4 0 7
6 7 14 0 18 27 20 32 3 3 -8 7 -8 11 -2 3 6 0 21 -7 35 -7 13 -11 30 -8 37 2
6 -1 12 -7 12 -6 0 -11 7 -11 15 0 8 5 15 11 15 5 0 7 -4 4 -10 -3 -5 -1 -10
5 -10 7 0 9 7 6 16 -3 9 -6 17 -6 20 0 2 -7 0 -17 -3 -10 -4 -14 -2 -9 5 3 6
1 14 -5 18 -6 3 -15 1 -19 -6 -6 -10 -14 -8 -34 6 -14 11 -26 24 -26 31 0 7
-6 10 -14 7 -7 -3 -20 1 -27 8 -23 22 -91 19 -112 -3z m127 -18 c3 -5 -1 -11
-9 -15 -15 -6 -29 7 -18 18 9 9 21 8 27 -3z"/>
<path d="M4010 438 c0 -7 4 -19 9 -27 7 -11 11 -10 20 7 15 28 14 32 -9 32
-11 0 -20 -6 -20 -12z"/>
<path d="M3780 431 c0 -6 5 -13 10 -16 6 -3 10 1 10 9 0 9 -4 16 -10 16 -5 0
-10 -4 -10 -9z"/>
<path d="M3921 412 c1 -17 18 -46 18 -33 1 7 7 11 16 7 25 -9 16 8 -10 21 -14
6 -25 8 -24 5z"/>
<path d="M3872 391 c-14 -8 -3 -22 28 -34 18 -7 -66 1 -95 10 -16 4 -18 3 -7
-8 6 -7 12 -26 12 -41 0 -18 5 -28 15 -28 11 0 12 5 5 25 -12 31 -1 38 34 19
16 -7 34 -14 41 -14 8 0 16 -8 18 -17 4 -17 5 -17 6 0 0 9 8 17 16 17 9 0 12
6 8 15 -3 9 -8 14 -10 11 -2 -2 -17 9 -32 24 -17 18 -32 26 -39 21z"/>
<path d="M4780 390 c0 -5 5 -10 11 -10 5 0 7 5 4 10 -3 6 -8 10 -11 10 -2 0
-4 -4 -4 -10z"/>
<path d="M4340 180 c0 -5 5 -10 11 -10 5 0 7 5 4 10 -3 6 -8 10 -11 10 -2 0
-4 -4 -4 -10z"/>
<path d="M4785 130 c-3 -5 -2 -10 4 -10 5 0 16 -3 25 -6 10 -4 16 -1 16 7 0 7
-3 9 -7 6 -3 -4 -12 -2 -19 4 -8 7 -14 7 -19 -1z"/>
<path d="M4847 106 c-6 -14 0 -26 14 -26 8 0 6 26 -3 35 -3 3 -8 -1 -11 -9z"/>
<path d="M5083 98 c-24 -31 -26 -40 -6 -27 11 6 20 18 20 25 0 17 -2 17 -14 2z"/>
<path d="M4787 70 c9 -11 19 -17 21 -15 6 6 -18 35 -29 35 -5 0 -1 -9 8 -20z"/>
<path d="M4923 51 c-12 -19 -15 -19 -47 -6 -48 20 -53 19 -23 -5 14 -11 31
-20 39 -20 8 0 19 -5 25 -11 6 -6 21 -8 33 -4 16 5 19 10 11 18 -20 20 -12 31
9 12 11 -10 17 -22 13 -28 -3 -5 0 -8 8 -5 8 3 15 14 17 25 2 15 -4 22 -22 27
-13 3 -30 8 -38 11 -7 3 -19 -4 -25 -14z m17 -21 c0 -5 -5 -10 -11 -10 -5 0
-7 5 -4 10 3 6 8 10 11 10 2 0 4 -4 4 -10z"/>
</g>
</svg>
