<?xml version="1.0" standalone="no"?>
<!DOCTYPE svg PUBLIC "-//W3C//DTD SVG 20010904//EN"
 "http://www.w3.org/TR/2001/REC-SVG-20010904/DTD/svg10.dtd">
<svg version="1.0" xmlns="http://www.w3.org/2000/svg"
 width="590.000000pt" height="633.000000pt" viewBox="0 0 590.000000 633.000000"
 preserveAspectRatio="xMidYMid meet">

<g transform="translate(0.000000,633.000000) scale(0.100000,-0.100000)"
fill="#000000" stroke="none">
<path d="M4678 6269 c-10 -5 -60 -60 -111 -122 -52 -62 -117 -132 -143 -157
-27 -25 -65 -65 -84 -90 -19 -25 -37 -47 -40 -50 -13 -12 -91 -122 -142 -200
-83 -128 -138 -240 -138 -283 0 -11 12 -50 26 -86 24 -60 26 -70 15 -111 -13
-49 -56 -116 -123 -195 -119 -137 -212 -235 -223 -235 -7 0 -25 16 -39 35 -41
53 -57 58 -122 39 l-57 -16 -18 23 c-17 22 -24 24 -111 23 -116 -2 -199 -21
-319 -74 -52 -23 -100 -44 -106 -47 -7 -3 -13 1 -13 9 0 8 -6 22 -12 30 -11
15 -18 15 -49 4 -91 -32 -256 -167 -321 -262 -13 -19 -28 -34 -33 -34 -14 0
-160 149 -260 265 -42 50 -89 103 -103 120 -48 54 -91 127 -97 165 -5 28 0 53
19 98 29 68 32 102 14 152 -11 33 -96 190 -107 200 -3 3 -23 31 -45 62 -63 95
-161 215 -260 322 -51 56 -117 130 -147 165 -69 82 -105 109 -121 93 -12 -12
5 -110 49 -282 7 -30 25 -107 39 -170 14 -63 50 -188 80 -277 29 -89 54 -168
54 -175 0 -7 -16 -45 -36 -85 -80 -162 -48 -295 127 -528 83 -111 82 -110 284
-317 139 -143 164 -172 155 -187 -11 -22 -81 -90 -126 -123 -68 -51 -158 -137
-213 -203 -32 -38 -75 -88 -96 -110 -66 -71 -75 -138 -25 -185 35 -33 86 -43
160 -30 48 8 59 6 84 -12 39 -28 101 -19 175 26 30 19 58 33 61 31 4 -2 7 -28
9 -57 6 -146 55 -336 119 -463 72 -143 200 -283 323 -355 40 -24 76 -46 79
-48 3 -2 -8 -15 -23 -28 -57 -49 -131 -22 -163 61 -19 51 -31 57 -40 19 -11
-42 3 -103 33 -146 52 -75 73 -113 73 -137 0 -20 -4 -23 -27 -17 -16 3 -60 11
-100 17 l-72 11 2 77 c0 45 -4 86 -12 99 l-13 24 -24 -23 c-21 -20 -26 -21
-34 -9 -5 8 -10 21 -10 29 0 13 -49 120 -60 131 -3 3 -19 23 -35 45 -49 65
-246 265 -263 265 -16 0 -15 -5 13 -110 32 -115 20 -219 -31 -276 -35 -39 -54
-43 -119 -27 -48 12 -74 13 -144 4 -46 -6 -94 -17 -106 -25 -27 -18 -35 -54
-28 -119 6 -51 -2 -58 -35 -29 -78 68 -63 353 24 440 8 7 14 20 14 27 0 42
-186 -83 -246 -164 -59 -80 -74 -135 -74 -274 0 -153 -14 -276 -36 -319 l-17
-32 -34 39 c-34 39 -35 41 -30 113 2 42 0 72 -5 72 -6 0 -23 -10 -40 -21 l-30
-22 -42 46 c-37 41 -111 85 -123 74 -2 -3 5 -23 16 -46 24 -46 28 -137 8 -164
-6 -9 -23 -17 -37 -18 -93 -8 -105 14 -105 188 0 111 -3 135 -17 149 -16 17
-18 16 -28 -10 -5 -15 -17 -59 -26 -97 -22 -97 -69 -162 -220 -304 -107 -100
-132 -130 -158 -184 -41 -89 -40 -157 3 -268 44 -114 49 -145 22 -172 -47 -47
-98 -12 -122 82 -11 45 -29 64 -29 32 0 -8 -4 -15 -9 -15 -14 0 -31 -83 -31
-148 0 -74 21 -146 73 -246 46 -89 113 -162 202 -223 73 -49 203 -115 270
-137 63 -21 62 -19 114 -91 57 -79 113 -130 181 -163 47 -23 67 -27 140 -26
63 0 99 6 140 22 49 20 72 22 204 21 l148 -1 17 -29 c23 -40 50 -44 321 -43
302 1 600 37 600 73 0 5 -12 12 -28 15 -30 6 -279 46 -287 46 -3 0 -5 4 -5 9
0 5 17 17 38 26 59 28 115 79 172 155 28 38 57 70 63 71 7 0 57 6 112 12 l100
12 -3 32 c-3 31 -2 31 50 37 81 10 279 26 314 26 l31 0 -1 -57 -1 -58 70 -3
c71 -3 202 25 235 51 8 7 25 33 37 60 27 56 49 67 136 67 55 0 65 -3 89 -28
14 -16 56 -41 93 -57 l67 -28 -6 -71 c-12 -152 -18 -180 -41 -202 -20 -19 -21
-25 -14 -89 14 -113 -1 -123 -231 -145 -110 -10 -175 -24 -185 -40 -3 -5 1
-21 10 -34 12 -19 17 -50 17 -124 1 -60 5 -105 13 -115 18 -25 97 -38 250 -42
113 -3 151 -8 200 -26 48 -18 89 -23 205 -27 299 -10 391 1 438 51 l22 23 -25
46 c-30 57 -36 166 -9 192 8 9 14 26 12 38 -2 18 -11 24 -35 26 -30 3 -32 6
-27 31 5 24 1 32 -23 46 l-29 17 14 62 c7 33 16 71 19 82 4 19 -3 24 -68 44
-41 13 -110 28 -154 34 -74 11 -80 14 -83 36 -1 15 13 52 37 92 21 37 44 82
50 101 11 34 13 34 49 26 63 -14 134 -10 192 12 44 17 68 20 121 15 126 -11
298 -45 328 -65 12 -8 12 -13 -3 -36 -26 -40 -14 -72 32 -84 81 -22 195 -32
377 -32 309 0 423 25 505 110 83 85 78 162 -18 313 -12 20 -14 32 -7 42 41 55
49 73 53 116 13 135 -96 352 -203 402 -104 49 -129 97 -105 202 14 62 5 73
-47 60 -57 -14 -86 -69 -78 -149 17 -175 16 -189 -2 -224 -38 -73 -101 -89
-163 -41 -24 18 -25 24 -28 141 -3 115 -18 189 -39 189 -5 0 -17 -25 -28 -56
-21 -61 -57 -94 -106 -94 -37 0 -57 20 -67 67 -13 58 -1 113 55 251 41 99 48
127 48 182 -1 90 -15 129 -90 255 -59 99 -96 144 -117 145 -5 0 -8 -30 -8 -67
0 -88 -14 -137 -47 -163 -40 -31 -72 -25 -123 23 -52 48 -104 83 -175 120 -28
14 -61 37 -74 51 -23 24 -24 30 -17 111 3 47 3 85 -2 85 -29 0 -157 -126 -178
-176 -8 -19 -20 -34 -27 -34 -15 0 -87 68 -87 82 0 5 59 69 130 141 93 94 139
149 160 191 17 33 30 65 30 73 0 18 26 17 34 -2 8 -22 32 -18 49 9 45 67 45
248 0 455 -42 195 -44 175 23 209 33 16 86 39 119 52 73 28 133 73 141 105 7
27 32 46 118 90 84 43 90 58 43 100 -42 36 -192 112 -417 212 -30 14 -68 31
-85 38 -16 8 -68 26 -115 41 -47 14 -95 34 -107 44 l-22 17 81 94 c44 52 97
113 117 137 20 24 44 53 55 65 25 31 95 171 112 226 25 85 13 170 -43 288
l-24 52 55 183 c103 341 176 628 176 695 0 34 -11 40 -42 22z m-11 -71 c-7
-21 -54 -207 -71 -289 -23 -106 -40 -122 -122 -117 -49 3 -69 9 -89 28 -14 13
-25 30 -25 37 0 8 19 35 43 61 23 26 76 88 117 137 41 50 85 101 97 115 13 14
23 28 23 32 0 5 7 8 16 8 9 0 14 -6 11 -12z m-3137 -216 c104 -124 230 -287
230 -299 0 -29 -98 -59 -164 -49 l-42 7 -23 87 c-26 100 -69 273 -77 317 -8
35 -7 35 76 -63z m2816 -183 c14 -24 90 -49 148 -49 55 0 58 -1 53 -22 -5 -24
-87 -292 -91 -295 -1 -1 -22 11 -46 26 -76 47 -130 47 -247 -1 -29 -12 -55
-19 -58 -16 -16 15 200 368 225 368 5 0 12 -5 16 -11z m-2520 -186 c84 -106
203 -316 185 -327 -5 -3 -37 6 -71 19 -35 14 -78 27 -96 31 -37 7 -96 -10
-137 -39 -16 -11 -32 -16 -37 -11 -9 10 -100 275 -100 292 0 8 20 12 53 12 39
0 68 8 108 29 30 15 57 29 60 30 3 0 19 -16 35 -36z m2575 -197 c94 -80 136
-285 89 -427 -39 -116 -69 -139 -177 -139 -79 0 -140 24 -191 73 -69 66 -84
116 -47 153 6 7 20 38 30 70 l18 58 -26 80 c-29 89 -29 92 35 132 81 52 209
52 269 0z m-2428 -154 c80 -40 89 -60 56 -123 -33 -65 -30 -124 11 -208 l33
-70 -57 -70 c-64 -79 -109 -101 -203 -101 -97 0 -148 38 -187 139 -22 57 -23
189 -2 251 25 73 74 156 113 190 34 30 40 32 103 28 50 -3 83 -12 133 -36z
m2069 -300 c1 -5 21 -31 43 -57 54 -64 119 -95 211 -102 41 -3 74 -8 74 -10 0
-19 -41 -37 -92 -41 -77 -6 -140 13 -198 59 -53 42 -80 90 -80 143 0 33 2 36
19 26 11 -5 21 -14 23 -18z m-69 -70 c3 -16 26 -51 51 -79 53 -59 123 -93 208
-101 32 -2 58 -9 58 -15 0 -34 -202 -241 -273 -279 -45 -24 -132 -23 -182 3
-54 27 -100 81 -119 137 -25 73 -22 87 47 160 34 38 88 98 120 135 32 37 64
67 71 67 8 0 16 -13 19 -28z m-1867 -160 c-21 -41 -79 -96 -123 -118 -21 -10
-67 -20 -103 -22 -55 -2 -71 1 -104 21 l-38 24 77 6 c105 8 164 38 240 123
l60 68 3 -37 c2 -20 -4 -49 -12 -65z m1308 62 c10 -4 16 -18 16 -35 0 -32 11
-37 29 -15 7 8 43 20 82 26 67 12 70 11 89 -12 45 -55 46 -64 8 -110 -20 -24
-55 -56 -78 -73 -79 -56 -106 -84 -125 -125 -16 -34 -16 -46 -6 -80 16 -53 56
-97 127 -140 57 -34 60 -35 169 -35 144 0 170 13 307 151 l105 105 59 -15
c147 -38 651 -255 707 -304 16 -14 16 -16 1 -34 -10 -10 -29 -18 -44 -18 -28
0 -106 -66 -142 -122 -33 -49 -254 -148 -334 -148 -35 0 -67 -26 -43 -34 8 -3
27 -6 43 -8 26 -3 30 -9 42 -54 42 -167 61 -381 41 -474 -6 -31 -10 -35 -39
-35 -29 0 -33 -4 -54 -56 -33 -87 -72 -136 -202 -256 -128 -119 -194 -163
-318 -211 -101 -40 -165 -54 -238 -51 l-58 3 -56 -58 c-49 -51 -60 -57 -87
-53 -31 5 -65 -11 -65 -32 0 -6 -4 -11 -8 -11 -4 0 -21 -23 -37 -51 l-30 -51
-57 6 c-75 7 -134 36 -235 113 -58 43 -100 67 -140 78 -133 37 -209 82 -313
187 -179 180 -262 365 -279 620 -7 109 -12 134 -27 145 -28 20 -50 16 -107
-22 -76 -51 -110 -58 -138 -32 -21 20 -26 20 -102 9 -67 -10 -85 -9 -111 3
-50 24 -60 48 -37 93 11 20 30 48 43 62 13 14 61 67 108 119 47 51 126 127
177 167 51 41 100 88 110 104 23 40 40 44 80 20 41 -24 59 -25 67 -4 8 20 10
17 -37 39 -38 18 -117 88 -117 104 0 5 23 11 52 14 86 11 147 47 189 114 19
32 41 71 47 86 11 25 16 27 45 22 32 -6 35 -4 77 62 45 68 88 107 210 188 94
63 104 64 119 15 6 -22 14 -40 17 -40 3 0 17 12 32 26 36 34 70 51 145 74 126
38 282 59 321 44z m-1173 -108 c178 -179 179 -181 179 -228 0 -54 -50 -142
-99 -175 -72 -49 -162 -54 -240 -13 -37 18 -226 214 -249 257 -11 19 -8 20 57
26 117 10 205 67 250 162 12 25 23 45 25 45 2 0 37 -33 77 -74z m1454 -171
c27 -57 45 -81 78 -103 55 -38 71 -43 142 -51 l60 -6 -37 -40 c-58 -64 -118
-90 -208 -89 -90 0 -155 29 -213 93 -31 34 -37 48 -37 85 0 27 7 52 18 64 22
27 142 122 153 122 5 0 25 -34 44 -75z m-1578 -1740 c35 -44 71 -88 78 -97 24
-29 71 -130 85 -181 16 -58 25 -65 54 -38 12 12 24 19 27 17 2 -2 3 -31 1 -63
l-4 -59 -66 8 c-37 4 -72 7 -79 7 -6 1 -17 27 -23 59 -25 130 -40 144 -149
143 -44 0 -82 3 -85 7 -2 4 7 46 20 92 21 72 24 97 18 165 l-6 80 32 -30 c18
-16 61 -66 97 -110z m-667 18 c0 -5 -7 -32 -14 -61 -48 -179 -22 -320 70 -380
33 -21 34 -25 35 -90 1 -93 9 -113 55 -144 l41 -27 7 -82 c8 -95 17 -116 52
-125 32 -8 40 3 56 79 11 52 14 57 38 55 35 -3 50 9 50 37 0 21 37 77 65 97 5
5 61 5 123 2 108 -7 114 -6 137 16 18 17 26 38 31 82 8 72 28 86 96 72 l43 -9
1 -85 c0 -63 6 -97 21 -131 45 -100 134 -117 206 -40 21 23 42 41 48 41 5 0
28 -9 49 -20 33 -17 58 -20 138 -19 132 1 194 -8 188 -30 -3 -9 -13 -46 -22
-82 l-16 -67 -39 5 -39 6 0 -45 c0 -24 -5 -49 -11 -55 -15 -15 -6 -40 40 -110
49 -76 58 -105 72 -227 17 -155 52 -238 117 -273 l33 -18 -7 -60 c-3 -33 -11
-63 -16 -66 -5 -3 -70 -11 -146 -18 -225 -19 -292 -38 -292 -82 0 -18 -17 -22
-152 -35 l-67 -6 -22 -44 c-28 -58 -107 -138 -167 -168 -27 -14 -76 -28 -110
-32 -34 -3 -62 -10 -62 -14 0 -4 60 -22 133 -40 72 -18 139 -36 147 -40 48
-26 -325 -56 -557 -45 -84 4 -153 10 -153 13 0 3 7 14 17 24 9 10 13 21 9 26
-4 4 -93 8 -198 10 -185 3 -193 3 -275 -24 -80 -26 -89 -27 -145 -15 -98 20
-193 91 -265 198 -28 43 -42 55 -76 63 -91 23 -210 75 -239 103 -8 8 -33 24
-57 36 -53 27 -150 124 -186 185 -39 66 -64 137 -74 211 -10 68 -4 145 11 145
5 0 18 -16 29 -35 31 -52 53 -60 97 -37 59 30 63 68 22 189 -56 162 -44 261
41 357 18 22 78 77 132 123 98 85 125 119 180 226 16 31 30 57 31 57 1 0 0
-27 -2 -60 -6 -84 4 -124 40 -159 27 -26 40 -31 80 -31 36 0 52 5 67 22 25 26
35 75 28 129 -7 52 11 51 54 -2 17 -22 42 -44 53 -49 15 -5 22 -18 24 -41 2
-22 14 -43 37 -66 19 -19 35 -43 35 -54 0 -17 4 -19 22 -13 39 12 70 62 86
139 7 31 9 108 5 195 l-6 145 32 75 c32 76 68 124 131 173 34 26 60 35 60 20z
m2900 -66 l0 -63 -57 -11 c-32 -5 -61 -9 -65 -7 -18 11 87 144 113 144 5 0 9
-28 9 -63z m-227 -79 l56 -61 -40 -29 c-21 -15 -44 -28 -51 -28 -7 0 -30 33
-50 73 l-38 72 23 17 c12 10 27 18 34 18 6 0 36 -28 66 -62z m-151 -35 c60
-93 61 -101 69 -463 4 -184 11 -360 17 -390 20 -105 22 -160 8 -160 -8 0 -16
7 -20 15 -8 23 -25 18 -36 -10 -11 -28 -28 -33 -36 -10 -4 8 -13 15 -20 15 -8
0 -17 -7 -20 -15 -10 -25 -21 -17 -43 28 -19 39 -21 61 -21 218 0 203 -17 332
-61 479 -50 171 -69 157 -25 -18 29 -112 46 -238 46 -332 l0 -65 -73 -18
c-107 -26 -112 -25 -127 28 -7 25 -18 45 -25 45 -12 0 -33 -10 -157 -78 -50
-28 -58 -29 -69 -15 -9 10 -24 14 -50 10 -36 -5 -37 -4 -49 39 -7 24 -19 44
-26 44 -8 0 -54 -36 -103 -80 -88 -79 -116 -92 -150 -71 -13 8 -13 22 1 101
13 72 29 115 77 212 34 67 59 123 57 126 -8 8 -54 -51 -83 -106 -18 -33 -33
-50 -41 -47 -8 3 -35 5 -62 5 -53 0 -52 -2 -28 78 9 31 12 32 62 32 66 0 90
17 123 86 18 39 30 53 42 50 9 -3 41 -8 72 -11 l55 -7 40 54 c23 29 46 63 53
76 9 17 20 22 51 22 32 0 47 7 82 40 38 37 49 42 118 51 97 12 159 26 245 55
39 12 73 23 76 23 4 1 17 -16 31 -36z m953 -84 c57 -94 84 -167 85 -226 0 -48
-29 -140 -71 -224 -40 -80 -56 -166 -40 -218 6 -22 22 -53 35 -68 24 -27 25
-27 82 -16 46 10 65 20 86 45 15 17 31 29 34 25 4 -3 9 -50 11 -104 2 -54 9
-108 15 -119 13 -27 77 -64 110 -64 36 0 89 39 116 85 24 42 24 47 5 251 -4
54 -2 65 16 83 33 33 41 26 41 -39 0 -82 26 -131 87 -166 128 -73 210 -183
220 -293 6 -61 -9 -166 -34 -235 -13 -38 -12 -41 11 -63 32 -30 69 -146 61
-191 -4 -24 -16 -39 -41 -54 -25 -15 -33 -25 -29 -39 4 -13 -2 -22 -22 -32
-51 -27 -106 -36 -293 -47 -280 -17 -540 7 -540 50 0 6 7 25 16 42 15 29 15
32 -3 48 -10 9 -54 25 -98 34 -44 10 -98 22 -120 28 -22 6 -83 12 -135 15 -89
4 -99 3 -144 -21 -56 -30 -87 -31 -171 -7 l-60 17 3 43 3 43 -38 -4 c-54 -4
-68 28 -68 152 0 115 15 290 25 290 25 0 39 113 21 176 -5 17 -12 81 -16 142
l-7 112 51 0 c29 0 66 7 83 16 28 14 35 14 82 0 93 -28 121 -29 168 -8 24 10
55 30 69 44 22 22 36 25 128 32 80 5 112 11 138 27 85 53 84 125 -1 252 l-55
81 28 17 c39 23 59 54 77 117 9 28 19 52 23 52 4 0 29 -36 56 -81z m-3094 4
c5 -5 2 -36 -7 -68 -19 -73 -14 -145 16 -212 23 -51 21 -101 -5 -123 -7 -6
-17 -25 -20 -41 -5 -22 -12 -29 -30 -29 -44 0 -54 -10 -61 -60 -6 -48 -19 -79
-28 -69 -3 2 -9 40 -15 84 -13 105 -17 113 -61 131 l-38 16 -6 81 c-3 45 -8
123 -11 173 l-6 90 28 13 c59 28 221 37 244 14z m1013 2 c43 -6 55 -13 93 -55
24 -26 67 -63 95 -81 29 -18 54 -34 56 -35 8 -5 -34 -91 -52 -106 -32 -27
-100 -24 -128 5 -13 13 -39 35 -58 48 -19 13 -44 32 -55 42 -49 46 -104 48
-138 7 -14 -16 -30 -30 -34 -30 -5 0 -14 19 -20 43 -7 23 -28 61 -47 84 -20
22 -36 49 -36 57 0 14 7 12 37 -9 55 -37 104 -34 151 10 27 25 44 34 62 31 14
-3 47 -8 74 -11z m-714 -20 c31 -33 43 -145 16 -145 -9 0 -24 9 -33 20 -13 14
-19 16 -25 7 -19 -30 -8 -46 38 -53 l46 -7 -7 -51 c-4 -28 -14 -62 -22 -75
-14 -22 -19 -23 -106 -19 -56 2 -101 10 -115 19 -37 22 -64 86 -70 160 -10
137 20 164 189 168 58 1 68 -2 89 -24z m2440 -24 c5 -11 10 -29 10 -40 0 -17
-6 -21 -35 -21 -32 0 -35 -3 -45 -40 -12 -46 -38 -58 -85 -40 -23 9 -32 8 -40
-3 -26 -36 -60 -39 -127 -12 -13 5 -18 2 -18 -8 0 -18 -21 -27 -66 -27 -28 0
-34 4 -34 21 0 11 -5 29 -10 39 -17 31 5 31 29 0 18 -26 24 -28 41 -18 10 7
21 22 25 35 7 30 26 29 55 -2 31 -33 68 -33 76 0 10 41 28 48 52 20 39 -45 76
-22 74 45 -1 22 -1 40 1 40 1 0 17 -4 36 -10 32 -9 33 -8 27 15 -8 31 18 35
34 6z m92 -98 c40 -47 32 -98 -17 -107 -29 -6 -33 -11 -39 -46 -7 -45 -29 -56
-97 -47 -35 5 -41 2 -49 -17 -11 -31 -33 -46 -74 -53 -24 -4 -44 0 -60 11 -34
22 -45 20 -76 -9 -56 -54 -126 -20 -118 56 l3 34 23 -43 c29 -55 58 -54 87 0
23 43 36 47 62 19 47 -50 115 -42 121 14 5 54 8 56 54 35 24 -11 53 -20 66
-20 20 0 22 5 22 50 l0 50 40 0 c44 0 52 18 25 54 -8 11 -15 23 -15 28 0 14
27 8 42 -9z m-1901 -69 c10 -13 10 -17 -2 -25 -30 -19 -77 1 -79 34 0 14 68 7
81 -9z m-255 -30 l72 -7 6 -36 c3 -20 6 -57 6 -83 0 -43 -4 -51 -42 -88 -37
-35 -48 -40 -83 -38 -34 3 -43 9 -69 45 -26 38 -30 52 -30 115 -1 95 6 112 42
104 15 -3 59 -9 98 -12z m264 -44 c69 0 90 -13 90 -53 0 -37 -6 -47 -40 -70
-28 -19 -110 -23 -142 -6 -25 13 -48 67 -48 113 0 41 13 48 57 29 18 -7 55
-13 83 -13z m1079 -727 c17 -37 27 -133 14 -133 -6 0 -16 28 -22 63 -7 34 -14
70 -17 80 -8 27 12 20 25 -10z m70 -37 c10 -39 5 -96 -9 -96 -13 0 -31 98 -24
126 8 31 19 21 33 -30z m-868 -4 l1 -37 10 33 c18 55 38 40 38 -29 0 -43 -3
-60 -12 -57 -7 3 -15 15 -19 29 -7 24 -7 24 -8 -3 -1 -31 -25 -38 -35 -12 -8
20 -8 88 0 108 10 26 24 8 25 -32z m757 -18 c3 -46 2 -48 -12 -29 -19 25 -22
89 -3 83 7 -3 13 -26 15 -54z m-397 36 c21 -6 44 -22 54 -36 21 -33 11 -43
-18 -17 -12 11 -37 26 -54 33 -18 7 -33 16 -33 21 0 11 7 11 51 -1z m355 -35
c7 -48 3 -62 -15 -50 -13 8 -15 95 -2 95 6 0 13 -20 17 -45z m208 14 c9 -47 7
-89 -4 -89 -21 0 -41 96 -23 113 13 14 21 6 27 -24z m-818 -13 c8 -33 1 -79
-13 -83 -7 -3 -15 10 -18 30 -12 60 17 108 31 53z m58 -12 c3 -9 6 -27 6 -40
0 -31 -26 -31 -34 0 -10 42 14 77 28 40z m336 -258 c22 -47 40 -90 40 -95 0
-12 -117 -15 -144 -5 -21 8 -20 32 5 101 23 61 36 83 50 83 5 0 27 -38 49 -84z
m284 -8 c20 -31 47 -128 36 -128 -18 0 -50 60 -56 104 -7 51 -2 57 20 24z
m104 -20 c34 -74 36 -88 13 -88 -15 0 -23 10 -30 38 -11 36 -15 92 -7 92 2 0
13 -19 24 -42z m50 -7 c25 -44 29 -73 9 -65 -15 5 -47 67 -47 89 0 26 16 16
38 -24z m-808 -29 c1 -16 2 -16 14 1 21 27 26 21 26 -34 l0 -50 -32 3 c-37 3
-44 19 -33 74 6 34 25 38 25 6z m90 -36 c0 -21 -6 -36 -15 -40 -11 -4 -15 2
-15 28 0 18 3 36 7 39 14 15 23 5 23 -27z m45 -1 c0 -16 -6 -30 -12 -32 -9 -3
-13 7 -13 32 0 25 4 35 13 33 6 -3 12 -17 12 -33z m-87 -121 c45 -9 82 -20 82
-24 0 -10 -95 -30 -141 -30 -38 0 -39 1 -39 35 0 19 3 35 8 35 4 0 44 -7 90
-16z m712 -194 c158 -30 143 -59 -37 -74 l-73 -6 0 50 c0 47 2 50 23 46 12 -2
51 -9 87 -16z m320 -105 c41 -9 79 -20 83 -24 15 -15 -36 -41 -78 -41 -23 0
-63 -7 -89 -16 -40 -14 -57 -15 -100 -6 -28 6 -96 13 -151 15 -130 6 -193 33
-130 57 14 5 67 16 117 24 108 18 238 14 348 -9z m-274 -104 c66 -4 125 -11
132 -15 6 -3 28 0 48 9 20 8 68 18 105 21 l69 7 0 -35 c0 -29 -5 -37 -32 -49
-18 -8 -39 -26 -46 -41 -14 -30 -31 -35 -49 -17 -6 6 -75 15 -155 19 -212 13
-288 35 -288 84 0 33 10 39 55 31 22 -3 94 -10 161 -14z m376 -130 c-12 -11
-40 -22 -61 -26 -22 -4 -42 -13 -45 -21 -4 -11 -31 -14 -127 -14 -107 0 -120
2 -109 15 10 12 37 15 120 15 76 0 116 4 136 15 16 8 37 15 46 15 9 0 20 5 23
10 3 6 14 10 23 10 14 -1 13 -4 -6 -19z m-618 -22 c38 -22 46 -48 21 -69 -11
-10 -39 -11 -108 -5 -50 4 -126 8 -168 11 -77 3 -129 17 -129 32 0 9 243 49
312 51 21 0 52 -8 72 -20z m122 10 c58 -10 95 -31 81 -45 -10 -10 -160 30
-165 44 -5 15 5 15 84 1z m568 -48 c12 -19 -28 -34 -107 -42 -45 -5 -130 -13
-189 -20 -92 -9 -123 -8 -210 6 -124 21 -140 28 -108 45 19 10 35 9 87 -5 52
-14 91 -17 206 -12 87 3 160 11 187 20 51 17 126 22 134 8z m-770 -57 l148 -7
-5 -40 c-3 -22 -10 -44 -15 -49 -5 -5 -42 -12 -83 -17 -41 -5 -90 -16 -108
-25 -31 -16 -34 -16 -75 3 -23 12 -57 21 -74 21 -44 0 -72 30 -72 78 0 21 3
42 8 46 4 4 34 5 67 2 33 -3 127 -9 209 -12z m754 -56 c3 -42 0 -48 -30 -71
-18 -14 -52 -33 -76 -42 -40 -16 -44 -16 -79 0 -41 20 -111 16 -190 -11 -47
-16 -47 -16 -68 9 -16 21 -30 26 -75 29 -52 3 -55 4 -68 40 -8 21 -12 49 -8
64 7 26 8 26 69 20 165 -16 332 -17 382 -3 28 8 70 14 95 13 l45 -1 3 -47z
m-871 -132 c13 -12 -7 -18 -62 -17 -65 0 -95 8 -95 23 0 11 145 6 157 -6z
m203 -6 c0 -23 -100 -26 -108 -2 -3 8 12 12 52 12 31 0 56 -4 56 -10z m60 -10
c0 -5 17 -10 37 -10 20 0 44 -7 54 -16 15 -14 23 -14 52 -3 44 16 279 -1 317
-22 24 -13 22 -14 -40 -20 -36 -4 -69 -4 -73 -2 -5 3 -75 9 -155 13 -158 7
-227 25 -216 54 7 18 24 22 24 6z m640 -8 c0 -18 -61 -53 -80 -47 -26 8 -25
20 2 39 23 17 78 22 78 8z"/>
<path d="M3483 3539 c-98 -48 -153 -143 -153 -262 0 -96 36 -158 125 -215 60
-38 167 -43 226 -11 24 13 55 37 68 53 14 15 30 34 37 40 31 31 44 164 24 237
-15 55 -75 131 -122 156 -57 31 -146 31 -205 2z m166 -64 c125 -64 136 -272
19 -348 -40 -25 -70 -32 -128 -27 -72 6 -130 91 -130 191 0 69 12 104 48 143
51 54 133 72 191 41z"/>
<path d="M3584 3360 c-123 -42 -141 -59 -132 -121 7 -55 115 -44 221 23 48 31
57 51 37 88 -20 38 -41 40 -126 10z"/>
<path d="M2492 3350 c-138 -99 -128 -359 15 -422 37 -16 57 -19 108 -13 l63 6
7 -38 c16 -85 103 -182 210 -234 43 -21 64 -24 155 -23 98 0 110 2 172 33 114
55 188 167 188 286 0 68 -10 94 -55 143 -95 106 -278 119 -486 36 -48 -19 -89
-34 -91 -34 -3 0 -8 28 -10 63 -6 65 -40 148 -74 179 -28 24 -92 48 -129 48
-20 0 -48 -11 -73 -30z m148 -53 c30 -15 70 -82 70 -118 l0 -26 -47 23 c-68
35 -119 29 -162 -17 -26 -28 -26 -44 -1 -69 24 -24 104 -27 163 -6 20 8 39 10
42 6 10 -15 -36 -90 -65 -105 -52 -27 -95 -20 -138 23 -39 39 -52 74 -52 137
0 60 13 96 45 131 27 29 39 34 76 34 24 0 55 -6 69 -13z m646 -203 c68 -42 96
-93 91 -165 -5 -59 -38 -135 -82 -187 -41 -49 -121 -74 -240 -76 -88 -1 -106
2 -150 24 -65 33 -139 109 -160 165 -36 93 -4 159 104 212 90 44 183 63 292
60 87 -2 101 -5 145 -33z"/>
<path d="M2046 2445 c-15 -27 -18 -47 -13 -96 3 -34 10 -66 17 -73 8 -8 10 2
5 40 -4 29 -2 75 4 104 6 29 10 54 8 56 -1 2 -11 -12 -21 -31z"/>
</g>
</svg>
